<svg xmlns="http://www.w3.org/2000/svg" width="294.24" height="61.56" viewBox="0 0 294.24 61.56">
  <g transform="translate(0.5)">
    <path d="M22.98.96A22.2,22.2,0,0,1,13.29-.96,17.544,17.544,0,0,1,6.84-6.09a21.508,21.508,0,0,1-3.6-7.11A27.682,27.682,0,0,1,2.1-21a24.087,24.087,0,0,1,1.29-7.65,22.7,22.7,0,0,1,3.9-7.11,19.5,19.5,0,0,1,6.57-5.22,20.556,20.556,0,0,1,9.3-1.98,20.845,20.845,0,0,1,9.42,1.98,18.452,18.452,0,0,1,6.48,5.25,23.138,23.138,0,0,1,3.75,7.11A24.871,24.871,0,0,1,44.04-21a23.646,23.646,0,0,1-1.29,7.56,23.148,23.148,0,0,1-3.9,7.11,19.658,19.658,0,0,1-6.57,5.28A20.3,20.3,0,0,1,22.98.96Zm.66-4.38a8.628,8.628,0,0,0,5.22-1.53,11.11,11.11,0,0,0,3.36-3.99,19.522,19.522,0,0,0,1.8-5.37,31.05,31.05,0,0,0,.54-5.67,36.764,36.764,0,0,0-.72-7.56,18.94,18.94,0,0,0-2.22-5.91,10.785,10.785,0,0,0-3.81-3.84,10.168,10.168,0,0,0-5.43-1.29,8.592,8.592,0,0,0-5.16,1.65,11.594,11.594,0,0,0-3.36,4.08,19.93,19.93,0,0,0-1.8,5.43,31.536,31.536,0,0,0-.54,5.7,30.935,30.935,0,0,0,.63,6,24.353,24.353,0,0,0,2.01,6,12.312,12.312,0,0,0,3.72,4.56A9.382,9.382,0,0,0,23.64-3.42ZM48.42,0V-3.96a8.889,8.889,0,0,0,2.31-.36A2.429,2.429,0,0,0,52.17-5.7a8.706,8.706,0,0,0,.51-3.48V-32.16q0-1.62.09-3.12t.15-2.28q-.96.06-2.4.09t-2.1.09V-42H65.64v3.96a9.08,9.08,0,0,0-2.28.36,2.428,2.428,0,0,0-1.47,1.35,8.677,8.677,0,0,0-.51,3.51V-9.84q0,1.62-.06,3.06a21.468,21.468,0,0,1-.18,2.22h8.04a6.976,6.976,0,0,0,5.55-2.49q2.01-2.43,2.01-7.35h4.02L80.4,0Zm53.46-38.04a9.08,9.08,0,0,0-2.28.36,2.428,2.428,0,0,0-1.47,1.35,8.677,8.677,0,0,0-.51,3.51V-9.84q0,1.62-.06,3.12a21.925,21.925,0,0,1-.18,2.28,24.2,24.2,0,0,1,2.43-.15q1.47-.03,2.07-.03V0H84.66V-3.96a8.889,8.889,0,0,0,2.31-.36A2.429,2.429,0,0,0,88.41-5.7a8.706,8.706,0,0,0,.51-3.48V-32.16q0-1.62.09-3.12t.15-2.28q-.96.06-2.4.09t-2.1.09V-42h17.22Z" transform="translate(-2.1 45.3)" fill="#79b2ff" stroke="#d2e5ff" stroke-width="1" stroke-dasharray="5 2"/>
    <path d="M15.48.96A12.234,12.234,0,0,1,8.88-.87,12.69,12.69,0,0,1,4.23-6.12a17.773,17.773,0,0,1-1.71-8.04,18.477,18.477,0,0,1,1.98-8.7A14.991,14.991,0,0,1,9.99-28.8a14.86,14.86,0,0,1,7.95-2.16,15.472,15.472,0,0,1,3.93.51,12.69,12.69,0,0,1,3.09,1.17V-37.5q0-.96.03-1.83t.15-2.07l-2.13.12-2.13.12v-2.52a26.413,26.413,0,0,0,4.08-.24,8.52,8.52,0,0,0,2.19-.6,4.242,4.242,0,0,0,1.17-.78h1.74V-6.36q0,.96-.06,1.92t-.18,2.16l2.13-.12,2.13-.12V0H25.5q-.18-.9-.27-1.65t-.15-1.47A12.327,12.327,0,0,1,20.94-.15,13.125,13.125,0,0,1,15.48.96Zm2.16-2.94a8.037,8.037,0,0,0,3.99-1.14,11.2,11.2,0,0,0,3.33-2.82q-.06-.72-.06-1.53V-9.24l.06-17.28a9.952,9.952,0,0,0-3.15-1.59,12.216,12.216,0,0,0-3.51-.51,8.213,8.213,0,0,0-5.22,1.74,10.622,10.622,0,0,0-3.36,4.86A19.654,19.654,0,0,0,8.7-14.7,21.052,21.052,0,0,0,9.87-8.16a10.481,10.481,0,0,0,3,4.53A7.134,7.134,0,0,0,17.64-1.98ZM53.04.96A14.506,14.506,0,0,1,45.57-.99a13.836,13.836,0,0,1-5.25-5.52,17.546,17.546,0,0,1-1.92-8.43,16.884,16.884,0,0,1,1.89-7.86,15.431,15.431,0,0,1,5.31-5.91,14.08,14.08,0,0,1,7.92-2.25,13.471,13.471,0,0,1,4.71.81,10.824,10.824,0,0,1,3.87,2.46,11.507,11.507,0,0,1,2.64,4.14,16.228,16.228,0,0,1,.96,5.85l-21.12.36a29.148,29.148,0,0,0,.99,8.01,10.648,10.648,0,0,0,3.21,5.34,8.486,8.486,0,0,0,5.7,1.89,11.845,11.845,0,0,0,3.81-.66,14.994,14.994,0,0,0,3.63-1.8,10.957,10.957,0,0,0,2.7-2.52l1.44,1.2a13.388,13.388,0,0,1-3.9,4.02A16.433,16.433,0,0,1,57.48.3,16.827,16.827,0,0,1,53.04.96ZM44.76-19.86h15.3a13.86,13.86,0,0,0-.63-4.17,7.229,7.229,0,0,0-2.07-3.3,5.451,5.451,0,0,0-3.78-1.29,8.353,8.353,0,0,0-5.79,2.07Q45.48-24.48,44.76-19.86ZM83.34.96A16.284,16.284,0,0,1,78,.15a16.39,16.39,0,0,1-3.84-1.83L74.4.42H71.88L71.52-9.9h1.86a8.761,8.761,0,0,0,1.38,4.41A8.869,8.869,0,0,0,78-2.46a8.758,8.758,0,0,0,4.26,1.08,9.445,9.445,0,0,0,3.06-.51,6.257,6.257,0,0,0,2.52-1.56,3.674,3.674,0,0,0,1.02-2.67,4.036,4.036,0,0,0-.99-2.79,8.994,8.994,0,0,0-2.61-1.95,35.026,35.026,0,0,0-3.48-1.56q-1.8-.72-3.6-1.5a18.529,18.529,0,0,1-3.33-1.86,8.261,8.261,0,0,1-2.43-2.64,7.576,7.576,0,0,1-.9-3.84A9.113,9.113,0,0,1,72-25.02a8.367,8.367,0,0,1,1.62-2.85,8.436,8.436,0,0,1,3.12-2.22,12.6,12.6,0,0,1,5.04-.87,13.8,13.8,0,0,1,3.6.54,10.553,10.553,0,0,1,3.84,2.04l-.12-2.28h2.52v10.5H89.7a11.874,11.874,0,0,0-.96-4.05,8.237,8.237,0,0,0-2.46-3.24,6.538,6.538,0,0,0-4.2-1.29,6.3,6.3,0,0,0-4.32,1.38,4.148,4.148,0,0,0-1.56,3.18,4.306,4.306,0,0,0,1.17,3.09,10.344,10.344,0,0,0,3.03,2.13q1.86.9,3.96,1.74,2.28.96,4.44,2.1a11.176,11.176,0,0,1,3.54,2.85,6.8,6.8,0,0,1,1.38,4.41,7.9,7.9,0,0,1-1.53,4.98A8.977,8.977,0,0,1,88.29.03,13.431,13.431,0,0,1,83.34.96ZM98.82-1.8a3.088,3.088,0,0,0,2.58-.93,4.7,4.7,0,0,0,.84-2.58q.12-1.65.12-3.81V-22.8q0-.96.06-1.83t.18-2.07l-2.13.12-2.13.12v-2.52a26.413,26.413,0,0,0,4.08-.24,8.52,8.52,0,0,0,2.19-.6,4.242,4.242,0,0,0,1.17-.78h1.74V-6.36q0,1.2-.03,2.13a13.794,13.794,0,0,1-.21,1.95q.96-.06,1.89-.09t1.89-.09V0H98.82Zm5.82-34.74a2.966,2.966,0,0,1-2.22-1.02,3.537,3.537,0,0,1-.96-2.52,3.581,3.581,0,0,1,.99-2.55,3.022,3.022,0,0,1,2.25-1.05,2.961,2.961,0,0,1,2.31,1.05,3.711,3.711,0,0,1,.93,2.55,3.478,3.478,0,0,1-.99,2.52A3.122,3.122,0,0,1,104.64-36.54Zm25.5,52.8a26.011,26.011,0,0,1-8.7-1.2,10.714,10.714,0,0,1-4.8-3.06,6.038,6.038,0,0,1-.63-7.11,9.3,9.3,0,0,1,2.16-2.43,10.168,10.168,0,0,1,2.49-1.5,7.789,7.789,0,0,1-3.03-1.77,4.014,4.014,0,0,1-1.11-2.97,5.727,5.727,0,0,1,1.68-3.93,7.212,7.212,0,0,1,4.32-2.25,11.177,11.177,0,0,1-4.41-3.66,9.233,9.233,0,0,1-1.65-5.46,10.692,10.692,0,0,1,1.86-6.27,12.709,12.709,0,0,1,4.77-4.14,13.215,13.215,0,0,1,6.03-1.47,14.254,14.254,0,0,1,3.96.57,13.773,13.773,0,0,1,3.66,1.65,9.672,9.672,0,0,1,1.71-3A8.371,8.371,0,0,1,141-33.81a6.412,6.412,0,0,1,3-.75,3.212,3.212,0,0,1,2.37.81,2.959,2.959,0,0,1,.81,2.19,2.844,2.844,0,0,1-.24,1.02,2.335,2.335,0,0,1-.81,1.02,2.524,2.524,0,0,1-1.53.42,2.4,2.4,0,0,1-1.68-.6,2.684,2.684,0,0,1-.84-1.5,3.423,3.423,0,0,0-2.34,1.41,6.813,6.813,0,0,0-1.14,2.55,10.017,10.017,0,0,1,2.31,3.18,9.232,9.232,0,0,1,.87,3.96,10.526,10.526,0,0,1-1.77,6,12.149,12.149,0,0,1-4.65,4.11,13.527,13.527,0,0,1-6.24,1.47,11.408,11.408,0,0,1-1.98-.15,11.823,11.823,0,0,0-2.04-.15,5.673,5.673,0,0,0-3.6,1.08,2.293,2.293,0,0,0-.96,2.58q.48,1.44,2.94,1.83a61.1,61.1,0,0,0,6.6.57A35.732,35.732,0,0,1,138-1.68a10.578,10.578,0,0,1,5.07,2.79,7.2,7.2,0,0,1,1.77,5.13,7.431,7.431,0,0,1-1.29,4.29,10.594,10.594,0,0,1-3.42,3.15,17.844,17.844,0,0,1-4.74,1.92A21.338,21.338,0,0,1,130.14,16.26Zm-.06-2.34q5.16,0,8.04-1.92T141,7.5a4.041,4.041,0,0,0-1.5-3.39,9.1,9.1,0,0,0-4.08-1.62,38.939,38.939,0,0,0-5.94-.51q-1.62-.06-3.18-.15a28.088,28.088,0,0,1-3-.33,7.918,7.918,0,0,0-2.52,2.64,6.5,6.5,0,0,0-.9,3.3,5.368,5.368,0,0,0,2.79,4.71A13.682,13.682,0,0,0,130.08,13.92Zm-.78-24.6a6.066,6.066,0,0,0,3.69-1.08,6.623,6.623,0,0,0,2.22-2.94,11.148,11.148,0,0,0,.75-4.2,15.1,15.1,0,0,0-.78-4.92,8.528,8.528,0,0,0-2.31-3.66A5.56,5.56,0,0,0,129-28.86a5.833,5.833,0,0,0-5.01,2.43,9.968,9.968,0,0,0-1.77,6.03,14.105,14.105,0,0,0,.84,5.07,7.672,7.672,0,0,0,2.43,3.42A6.042,6.042,0,0,0,129.3-10.68ZM148.86,0V-1.8a3.088,3.088,0,0,0,2.58-.93,4.7,4.7,0,0,0,.84-2.58q.12-1.65.12-3.81l.06-13.68q0-.96.03-1.92a13.892,13.892,0,0,1,.21-1.98l-2.13.12-2.13.12v-2.52a24.6,24.6,0,0,0,3.99-.24,6.927,6.927,0,0,0,2.01-.6,4.7,4.7,0,0,0,1.08-.78h1.74q.06.42.09.96t.09,1.2q.06.66.06,1.5a18.007,18.007,0,0,1,2.91-2.04,16.679,16.679,0,0,1,3.36-1.44,11.98,11.98,0,0,1,3.51-.54q5.22,0,7.62,3.27t2.4,10.17V-6.36q0,1.2-.03,2.13a13.8,13.8,0,0,1-.21,1.95q.96-.06,1.89-.09t1.89-.09V0H168.6V-1.8a3.088,3.088,0,0,0,2.58-.93,4.7,4.7,0,0,0,.84-2.58q.12-1.65.12-3.81v-8.4q-.06-5.16-1.71-7.8a5.553,5.553,0,0,0-5.19-2.58,9.64,9.64,0,0,0-4.23,1.14A10.959,10.959,0,0,0,157.56-24a8.773,8.773,0,0,1,.06,1.08v1.26l-.06,15.3q0,1.2-.03,2.13a13.8,13.8,0,0,1-.21,1.95q.96-.06,1.89-.09t1.89-.09V0Z" transform="translate(112.9 45.3)" fill="#d2e5ff"/>
  </g>
</svg>
