<svg xmlns="http://www.w3.org/2000/svg" viewBox="0 0 285 317.7">
  <g>
    <path d="M284.5,239.9s-3.3-23.2-24-34.8c-20.7-11.7-47-7.5-68.4-4.6s-36.3,18.5-36.7,37.7c-.3,19.2,16.5,21.4,27.7,40.8,11.2,19.5,11.2,26.6,31.3,35.9,20.1,9.3,48.3-4.6,61.1-30.1,12.8-25.5,9.1-44.8,9.1-44.8Z"/>
    <path d="M11.7,150.9s9.4,9.3,22.7,7.6c13.3-1.7,23.7-12.6,32.4-21.1,8.7-8.5,10.1-20.7,3.7-29.5-6.4-8.8-14.7-4-26.4-9-11.7-5-14.1-8.2-26.3-5.6S-2.3,111.8.6,127.7c2.9,15.8,11.1,23.3,11.1,23.3Z"/>
    <path d="M123.7,36s4.8,7.1,13.5,7.6,16.7-5.1,23.3-9.5c6.6-4.4,9-11.9,6-18.3-3-6.4-8.9-4.4-15.7-9S142.9-.2,134.8,0c-8.1.2-15.2,9.3-15.3,19.7s4.2,16.2,4.2,16.2Z"/>
  </g>
</svg>