<svg xmlns="http://www.w3.org/2000/svg" version="1.1" viewBox="0 0 512 512">
  <path d="M256.1,124.7c-72.4-.1-131.1,58.5-131.3,130.9,0,.1,0,.3,0,.4-.1,72.4,58.5,131.1,130.9,131.3.1,0,.3,0,.4,0,72.4.1,131.1-58.5,131.3-130.9,0-.1,0-.3,0-.4.1-72.4-58.5-131.1-130.9-131.3-.1,0-.3,0-.4,0ZM256.1,341.3c-47.1,0-85.2-38.2-85.3-85.3,0-47.1,38.2-85.2,85.3-85.3,47.1,0,85.3,38.2,85.4,85.3,0,47.1-38.3,85.3-85.4,85.3ZM423.3,119.3c0,16.9-13.6,30.6-30.5,30.6,0,0,0,0-.1,0-16.9,0-30.6-13.6-30.6-30.5,0,0,0,0,0-.1,0-16.9,13.7-30.6,30.6-30.6s30.6,13.7,30.6,30.6ZM510.2,150.4c.8-39.8-14-78.3-41.3-107.3C439.9,16,401.5,1.1,361.7,1.8c-42.3-2.4-169-2.4-211.2,0-39.8-.8-78.3,14-107.3,41.2C15.9,72,1,110.5,1.8,150.3c-2.4,42.3-2.4,169,0,211.2-.8,39.8,14,78.3,41.4,107.3,29,27.2,67.5,42.1,107.3,41.4,42.3,2.4,169,2.4,211.2,0,39.8.8,78.3-14,107.3-41.4,27.2-29,42-67.5,41.3-107.3,2.4-42.3,2.4-168.8,0-211.1ZM455.7,406.9c-8.8,22.3-26.4,39.9-48.7,48.7-33.7,13.4-113.7,10.3-150.9,10.3s-117.3,3-150.8-10.3c-22.3-8.8-39.9-26.4-48.7-48.7-13.4-33.7-10.3-113.7-10.3-150.9s-3-117.3,10.3-150.9c8.8-22.3,26.4-39.9,48.7-48.7,33.7-13.4,113.7-10.3,150.9-10.3s117.3-3,150.9,10.3c22.3,8.8,39.9,26.4,48.7,48.7,13.4,33.7,10.3,113.7,10.3,150.9s3,117.3-10.3,150.9Z"/>
</svg>