<svg xmlns="http://www.w3.org/2000/svg" version="1.1" viewBox="0 0 512 512">
  <path d="M256,512c91.5,0,176-48.8,221.7-128,45.7-79.2,45.7-176.8,0-256C432,48.8,347.5,0,256,0,164.5,0,80,48.8,34.3,128c-45.7,79.2-45.7,176.8,0,256,45.7,79.2,130.2,128,221.7,128ZM186.7,128.7c9.7-2.7,19.8,2.3,23.7,11.6l20,48c3.4,8.2,1,17.6-5.8,23.2l-24.6,20.2c16.7,35.3,45,63.7,80.3,80.3l20.2-24.7c5.6-6.8,15-9.2,23.2-5.8l48,20c9.3,3.9,14.2,14,11.6,23.7l-12,44c-2.4,8.7-10.3,14.8-19.3,14.8-123.7,0-224-100.3-224-224,0-9,6-16.9,14.7-19.3l44-12Z"/>
</svg>