<svg xmlns="http://www.w3.org/2000/svg" version="1.1" viewBox="0 0 511.9 512">
  <path d="M347.4,156.9C332.4,64.7,297.1,0,256,0s-76.4,64.7-91.4,156.9h182.7ZM156.9,256c0,22.1,1.1,44.1,3.4,66.1h191.3c2.3-21.9,3.4-44,3.4-66.1,0-22.1-1.1-44.1-3.4-66.1h-191.3c-2.3,21.9-3.4,44-3.4,66.1ZM492.1,156.9c-29.8-70.6-89.6-124.3-163.1-146.2,25.1,34.9,42.5,87.4,51.5,146.2h111.5ZM182.9,10.7C109.5,32.7,49.7,86.3,19.9,156.9h111.5c9-58.7,26.3-111.3,51.5-146.2h0ZM503.1,189.9h-118.4c2.2,21.7,3.4,43.9,3.4,66.1s-1.2,44.4-3.4,66.1h118.3c5.9-21.5,8.8-43.7,8.9-66.1,0-22.3-3-44.5-8.8-66.1ZM123.9,256c0-22.2,1.2-44.4,3.4-66.1H8.9C3.1,211.5,0,233.7,0,256c0,22.3,3.1,44.5,8.9,66.1h118.3c-2.1-21.7-3.3-43.9-3.3-66.1h0ZM164.7,355.1c15,92.2,50.2,156.9,91.4,156.9s76.3-64.7,91.3-156.9h-182.7ZM329.1,501.3c73.5-21.9,133.3-75.5,163.1-146.2h-111.5c-9.1,58.7-26.4,111.3-51.6,146.2ZM19.9,355.1c29.8,70.6,89.6,124.3,163.1,146.2-25.2-34.9-42.5-87.4-51.6-146.2H19.9Z"/>
</svg>