<svg xmlns="http://www.w3.org/2000/svg" version="1.1" viewBox="0 0 512 511.9">
  <path d="M420.4,496.2l-164.4-164.4-164.4,164.4c-20.9,21-54.9,21-75.9,0,0,0,0,0,0,0-21-21-21-54.9,0-75.9,0,0,0,0,0,0l164.4-164.4L15.7,91.6c-21-21-21-54.9,0-75.9,0,0,0,0,0,0,20.9-21,54.9-21,75.9,0,0,0,0,0,0,0l164.4,164.4L420.4,15.7c20.9-21,54.9-21,75.9,0,0,0,0,0,0,0,21,21,21,54.9,0,75.9,0,0,0,0,0,0l-164.4,164.4,164.4,164.4c21,21,21,54.9,0,75.9,0,0,0,0,0,0-10.1,10.1-23.7,15.7-37.9,15.7-14.2,0-27.9-5.6-37.9-15.7Z"/>
</svg>