<svg xmlns="http://www.w3.org/2000/svg" version="1.1" viewBox="0 0 512 409.5">
  <path d="M25.6,95.5C9.8,86.4,0,69.5,0,51.2,0,22.9,22.9,0,51.2,0c18.3,0,35.2,9.7,44.3,25.6h167.3C272,9.8,288.9,0,307.2,0,335.4,0,358.3,22.9,358.3,51.2c0,18.3-9.8,35.2-25.6,44.3v90.5c15.8,9.1,25.6,26,25.6,44.3,0,28.3-22.9,51.2-51.2,51.2-18.3,0-35.2-9.8-44.3-25.6H95.5c-9.1,15.8-26,25.6-44.3,25.6C22.9,281.6,0,258.6,0,230.4c0-18.3,9.8-35.2,25.6-44.3v-90.6ZM95.5,76.8c-4.5,7.8-10.9,14.2-18.7,18.7v90.5c7.8,4.5,14.2,10.9,18.7,18.7h167.3c4.5-7.8,10.9-14.2,18.7-18.7v-90.5c-7.8-4.5-14.2-10.9-18.7-18.7H95.5h0ZM249.1,383.9c-9.1,15.8-26,25.6-44.3,25.6-28.3,0-51.2-22.9-51.2-51.2,0-18.3,9.8-35.2,25.6-44.3v-32.5h51.2v32.5c7.8,4.5,14.2,10.9,18.7,18.7h167.3c4.5-7.8,10.9-14.2,18.7-18.7v-90.5c-7.8-4.5-14.2-10.9-18.7-18.7h-36.8c-4.3-12.2-11.6-23.1-21.2-31.7v-19.5h58.1c9.1-15.8,26-25.6,44.3-25.6,28.3,0,51.2,22.9,51.2,51.2,0,18.3-9.8,35.2-25.6,44.3v90.5c15.8,9.1,25.6,26,25.6,44.3,0,28.3-22.9,51.2-51.2,51.2-18.3,0-35.2-9.7-44.3-25.6h-167.4Z"/>
</svg>