<svg xmlns="http://www.w3.org/2000/svg" version="1.1" viewBox="0 0 512 512">
  <path d="M475.4,0H36.5C16.2.1,0,16.7,0,36.9v438.2c0,20.2,16.2,36.8,36.5,36.9h439c20.3-.1,36.6-16.6,36.6-36.9V36.9c0-20.3-16.3-36.8-36.6-36.9ZM154.7,438.9h-75.9v-244.3h76v244.3h-.1ZM116.8,161.1c-24.3,0-44-19.7-44-44,0-24.3,19.7-44,44-44,24.3,0,43.9,19.7,44,44,0,24.3-19.6,44-43.9,44,0,0,0,0,0,0h0ZM439.2,438.9h-75.9v-118.9c0-28.3-.6-64.8-39.4-64.8-39.5,0-45.6,30.9-45.6,62.7v120.9h-75.9v-244.3h72.8v33.4h1.1c14.9-25.4,42.5-40.5,71.9-39.4,76.8,0,91.1,50.6,91.1,116.5v134Z"/>
</svg>