<svg xmlns="http://www.w3.org/2000/svg" version="1.1" viewBox="0 0 512 407.7">
  <path d="M248.4,103.7c5.9-5,7.9-13.2,5.1-20.4-1.9-4.3-3.9-8.5-6.2-12.6l-2.5-4.4c-2.4-4.1-5.1-8.1-8-11.9-4.8-6.1-12.9-8.4-20.1-5.8l-23,7.6c-8.8-7.3-18.8-13-29.5-17l-5-23.6c-1.4-7.6-7.4-13.4-15.1-14.5C138.7.3,133.2,0,127.7,0h-.6c-5.5,0-10.9.3-16.4,1-7.6,1.1-13.7,6.9-15.1,14.5l-5,23.7c-10.7,4-20.7,9.8-29.5,17l-23.1-7.5c-7.3-2.6-15.4-.3-20.1,5.8-2.9,3.8-5.5,7.8-8.1,11.9l-2.4,4.3c-2.3,4.1-4.4,8.4-6.2,12.7-2.9,7.2-.8,15.4,5.1,20.4l18.1,16.1c-.9,5.6-1.4,11.3-1.4,17,0,5.7.5,11.4,1.4,17l-18.1,16.1c-5.9,5-7.9,13.2-5.1,20.4,1.9,4.3,3.9,8.6,6.2,12.7l2.5,4.2c2.4,4.1,5.1,8.1,8.1,11.9,4.8,6.1,12.9,8.4,20.1,5.8l23-7.6c8.8,7.3,18.8,13,29.5,17l5,23.7c1.4,7.6,7.4,13.4,15.1,14.5,5.5.7,11.1,1,16.6,1,5.6,0,11.1-.3,16.6-1,7.6-1.1,13.7-6.9,15.1-14.5l5-23.7c10.7-4,20.7-9.8,29.5-17l23,7.6c7.3,2.6,15.4.3,20.1-5.8,2.9-3.8,5.5-7.8,8-11.9l2.5-4.4c2.3-4.1,4.3-8.3,6.2-12.6,2.8-7.2.8-15.4-5.1-20.4l-18.1-16.1c.9-5.6,1.4-11.3,1.4-17,0-5.7-.5-11.4-1.4-17l18.1-16.1h.2ZM88.2,136.9c0-14,7.4-26.9,19.6-33.9,12.1-7,27-7,39.1,0,12.1,7,19.6,19.9,19.6,33.9,0,14-7.4,26.9-19.6,33.9-12.1,7-27,7-39.1,0-12.1-7-19.6-19.9-19.6-33.9ZM408.3,401.4c5,5.9,13.2,7.9,20.4,5.1,4.3-1.9,8.5-3.9,12.6-6.2l4.4-2.5c4.1-2.4,8.1-5.1,11.9-8,6.1-4.8,8.4-12.9,5.8-20.1l-7.6-23c7.3-8.8,13-18.8,17-29.5l23.7-5c7.6-1.4,13.4-7.4,14.5-15.1.7-5.5,1-11.1,1-16.6,0-5.6-.3-11.1-1-16.6-1.1-7.6-6.9-13.7-14.5-15.1l-23.7-5c-4-10.7-9.8-20.7-17-29.5l7.6-23c2.6-7.3.3-15.4-5.8-20.1-3.8-2.9-7.8-5.5-11.9-8.1l-4.3-2.4c-4.1-2.3-8.4-4.4-12.7-6.2-7.2-2.9-15.4-.8-20.4,5l-16.1,18.1c-5.6-.9-11.3-1.4-17.1-1.4-5.7,0-11.4.5-17,1.4l-16.1-18.1c-5-5.9-13.2-7.9-20.4-5-4.3,1.9-8.6,3.9-12.7,6.2l-4.3,2.4c-4.1,2.4-8.1,5.1-11.9,8.1-6.1,4.8-8.4,12.9-5.8,20.1l7.6,23c-7.3,8.8-13,18.8-17,29.5l-23.7,4.9c-7.6,1.4-13.4,7.4-14.5,15.1-.7,5.5-1,11.1-1,16.6,0,5.6.3,11.1,1,16.6,1.1,7.6,6.9,13.7,14.5,15.1l23.7,5c4,10.7,9.8,20.7,17,29.5l-7.6,23c-2.6,7.3-.3,15.4,5.8,20.1,3.8,2.9,7.8,5.5,11.9,8l4.4,2.5c4.1,2.3,8.3,4.3,12.6,6.2,7.2,2.9,15.4.8,20.4-5.1l16.1-18.1c5.6.9,11.3,1.4,17,1.4,5.7,0,11.4-.5,17-1.4l16.1,18.1v.2ZM375.1,241.2c14,0,26.9,7.4,33.9,19.6,7,12.1,7,27,0,39.1-7,12.1-19.9,19.6-33.9,19.6-14,0-26.9-7.4-33.9-19.6-7-12.1-7-27,0-39.1,7-12.1,19.9-19.6,33.9-19.6Z"/>
</svg>