<svg xmlns="http://www.w3.org/2000/svg" version="1.1" viewBox="0 0 512 512">
  <path d="M256,512c91.5,0,176-48.8,221.7-128,45.7-79.2,45.7-176.8,0-256C432,48.8,347.5,0,256,0,164.5,0,80,48.8,34.3,128c-45.7,79.2-45.7,176.8,0,256,45.7,79.2,130.2,128,221.7,128ZM164.1,325.5c22.9,27,56.5,42.6,91.9,42.5,35.4,0,69-15.5,91.9-42.5,5.8-6.7,15.9-7.4,22.6-1.6,0,0,0,0,0,0,6.7,5.8,7.4,15.9,1.6,22.6,0,0,0,0,0,0-29,34-71.4,53.5-116.1,53.5-44.7,0-87.1-19.5-116.1-53.5-5.8-6.7-5.1-16.8,1.6-22.6,0,0,0,0,0,0,6.7-5.8,16.8-5.1,22.6,1.6,0,0,0,0,0,0ZM144.4,208c0-17.7,14.3-32,32-32s32,14.3,32,32-14.3,32-32,32-32-14.3-32-32ZM336.4,176c17.7,0,32,14.3,32,32s-14.3,32-32,32-32-14.3-32-32,14.3-32,32-32Z"/>
</svg>