<svg xmlns="http://www.w3.org/2000/svg" version="1.1" viewBox="0 0 512 455.1">
  <path d="M497.4,85c19.4-19.4,19.5-50.9,0-70.3,0,0,0,0,0,0-19.4-19.4-50.9-19.5-70.3,0,0,0,0,0,0,0l-224.6,224.6,70.4,70.4,224.6-224.6ZM182.2,259.4c-8.4-2.3-17.1-3.4-25.8-3.4-55,0-99.5,44.5-99.5,99.5,0,0,0,0,0,.1,0,3.4.2,6.9.5,10.3,2.4,15.4-8.1,29.8-23.5,32.2-.4,0-.8.1-1.2.2h-4.3c-15.7,0-28.4,12.7-28.4,28.4s12.7,28.4,28.4,28.4h128c55,0,99.5-44.5,99.6-99.4,0,0,0,0,0-.1,0-8.7-1.1-17.4-3.4-25.8h0c0,0-70.4-70.5-70.4-70.5h0ZM265.2,136.1L146.4,17.2c-22.2-22.2-58.2-22.2-80.4,0l-20.9,20.8c-22.2,22.2-22.2,58.2,0,80.4l109.2,109.2h2.2c5.5,0,10.9.3,16.4,1.1l92.5-92.5h-.2ZM284.4,357.8l57.4,57.4c6,6,13.4,10.3,21.5,12.6l92.4,26.4c11.3,3.2,23.1-3.3,26.4-14.6,1.1-3.8,1.1-7.9,0-11.8l-26.4-92.4c-2.3-8.1-6.6-15.5-12.6-21.5l-67.2-67.2-92.6,92.5c.7,5.4,1.1,10.9,1.1,16.4v2.2Z"/>
</svg>