<svg xmlns="http://www.w3.org/2000/svg" version="1.1" viewBox="0 0 512 409.6">
  <path d="M115.2,0c22.9,0,44,12.2,55.5,32,11.4,19.8,11.4,44.2,0,64-11.4,19.8-32.6,32-55.4,32-22.9,0-44-12.2-55.4-32-11.4-19.8-11.4-44.2,0-64C71.2,12.2,92.4,0,115.2,0ZM409.6,0c22.9,0,44,12.2,55.4,32,11.4,19.8,11.4,44.2,0,64-11.4,19.8-32.6,32-55.4,32-22.9,0-44-12.2-55.4-32-11.4-19.8-11.4-44.2,0-64C365.6,12.2,386.7,0,409.6,0ZM0,239c0-47.1,38.2-85.3,85.4-85.4h34.1c12.3,0,24.5,2.6,35.7,7.8-1,5.9-1.5,11.9-1.5,17.8,0,29.4,12.6,57.4,34.7,76.8H17c-9.4,0-17-7.6-17-17ZM324.2,256h-.6c22.1-19.4,34.7-47.4,34.6-76.8,0-6-.5-11.9-1.5-17.8,11.2-5.1,23.4-7.8,35.7-7.8h34.1c47.1,0,85.4,38.2,85.4,85.4,0,9.4-7.6,17-17,17h-170.7ZM179.2,179.2c0-27.5,14.6-52.8,38.4-66.6,23.8-13.7,53-13.7,76.8,0,23.8,13.7,38.4,39.1,38.4,66.5,0,27.4-14.6,52.8-38.4,66.5-23.8,13.7-53,13.7-76.8,0-23.8-13.7-38.4-39-38.4-66.5ZM102.4,388.2c0-58.9,47.8-106.6,106.6-106.6h93.9c58.9,0,106.6,47.8,106.6,106.6,0,11.8-9.6,21.4-21.4,21.4H123.8c-11.8,0-21.4-9.6-21.4-21.4h0Z"/>
</svg>