<svg xmlns="http://www.w3.org/2000/svg" version="1.1" viewBox="0 0 512 415.8">
  <path d="M459.4,103.6c.3,4.5.3,9.1.3,13.6,1.1,163.8-130.7,297.4-294.4,298.6-1.4,0-2.7,0-4.1,0-57.1.1-113.1-16.2-161.1-47.1,8.4.9,16.9,1.4,25.3,1.3,47.2.1,93.1-15.7,130.2-44.8-44.9-.8-84.3-30.1-98.1-72.9,6.6,1,13.2,1.6,19.8,1.6,9.3,0,18.6-1.2,27.6-3.6-49-9.9-84.2-53-84.1-103v-1.3c14.5,8.1,30.8,12.7,47.4,13.3-29.3-19.5-46.8-52.3-46.8-87.4,0-18.6,4.9-36.9,14.3-53,53.3,65.7,132,105.6,216.4,109.9-1.7-7.9-2.5-16-2.6-24C249.5,47,296.4,0,354.3,0c0,0,0,0,.1,0,29,0,56.8,11.9,76.7,33.1,23.5-4.5,46-13.1,66.6-25.3-7.8,24.3-24.2,44.8-46.1,57.8,20.8-2.4,41.2-7.8,60.4-16.2-14.4,20.9-32.2,39.3-52.6,54.3h0Z"/>
</svg>