<svg xmlns="http://www.w3.org/2000/svg" version="1.1" viewBox="0 0 512 384">
  <path d="M502.3,126.8c-22.4,17.4-52,39.6-154,113.7-20.3,14.8-56.6,47.9-92.3,47.6-35.5.2-71.1-32.2-92.2-47.6C61.8,166.4,32.1,144.3,9.7,126.9c-2.6-2.1-6.3-1.6-8.4,1C.5,128.9,0,130.2,0,131.6v204.4c0,26.5,21.5,48,48,48h416c26.5,0,48-21.5,48-48v-204.5c0-3.3-2.7-6-6.1-6-1.3,0-2.6.5-3.6,1.3ZM256,256c23.2.4,56.6-29.2,73.4-41.4,132.7-96.3,142.8-104.7,173.4-128.7,5.8-4.5,9.2-11.5,9.2-18.9v-19c0-26.5-21.5-48-48-48H48C21.5,0,0,21.5,0,48v19c0,7.4,3.4,14.3,9.2,18.9,30.6,23.9,40.7,32.4,173.4,128.7,16.8,12.2,50.2,41.8,73.4,41.4Z"/>
</svg>