<svg xmlns="http://www.w3.org/2000/svg" version="1.1" viewBox="0 0 512 365.7">
  <path d="M0,137.1C0,61.4,61.3,0,137.1,0h9.2c20.2,0,36.5,16.3,36.6,36.5,0,0,0,0,0,0,0,20.2-16.3,36.5-36.5,36.6,0,0,0,0,0,0h-9.1c-35.3,0-64,28.7-64,64v9.1h73.1c40.4,0,73.1,32.8,73.1,73.1v73.1c0,40.4-32.8,73.1-73.1,73.1h-73.1C32.8,365.7,0,333,0,292.6v-155.4ZM292.6,137.1C292.5,61.4,353.9,0,429.6,0h9.2c20.2,0,36.5,16.3,36.6,36.5,0,0,0,0,0,0,0,20.2-16.3,36.5-36.5,36.6,0,0,0,0,0,0h-9.1c-35.3,0-64,28.7-64,64v9.1h73.1c40.4,0,73.1,32.8,73.1,73.1v73.1c0,40.4-32.8,73.1-73.1,73.1h-73.1c-40.4,0-73.1-32.8-73.1-73.1v-155.4Z"/>
</svg>